<?xml version="1.0" encoding="UTF-8"?>
<svg version="1.1" viewBox="0 0 1000 1000" width="250" height="250" xmlns="http://www.w3.org/2000/svg">
<path transform="translate(477,9)" d="m0 0h46l37 3 33 5 31 7 25 7 26 9 27 11 25 12 23 13 18 11 19 13 12 9 14 11 15 13 10 9 28 28 9 11 12 14 15 20 14 21 15 25 14 27 12 27 9 24 9 28 9 38 5 31 3 30 1 21v26l-2 35-4 32-6 31-7 27-12 36-11 27-16 33-14 24-12 19-14 19-10 13-12 14-7 8-11 12-18 18-8 7-11 10-13 10-17 13-24 16-15 9-18 10-16 8-21 10-26 10-27 9-40 10-30 5-26 3-33 2h-25l-32-2-39-5-37-8-28-8-26-9-24-10-25-12-17-9-20-12-18-12-11-8-12-9-11-9-14-12-15-14-19-19-7-8-13-15-13-17-13-18-14-22-13-23-8-15-12-27-11-29-8-26-8-32-5-28-3-24-2-27v-46l2-28 4-30 6-30 9-34 10-29 12-29 10-21 12-22 13-21 13-19 12-16 13-16 12-14 11-11 6-7 8-7 9-9 8-7 13-11 16-12 18-13 19-12 26-15 22-11 28-12 31-11 29-8 34-7 27-4z"/>
<path transform="translate(261,439)" d="m0 0h468l16 4 9 5 6 5 6 10 1 4v12l-9 66-14 98-16 111-3 17 64-1 6-3 5-6 4-10 1-4v-10l-18-64-14-50-1-7 16-5 4-2h3l7 24 25 89 4 16-1 13-4 14-6 12-10 11-13 7-5 1-39 1h-536l-12-2-10-4-9-7-7-8-7-14-3-12v-15l8-28 16-58 9-32 2-7 2-1 15 5 7 3-15 55-12 43-6 21v14l3 8 6 8 9 4 67 1-3-13-34-195-12-68v-15l4-15 6-12 5-6 9-6z" fill="#FEFEFE"/>
<path transform="translate(490,188)" d="m0 0h19l17 3 16 6 15 9 11 9 7 7 10 14 8 16 5 15 3 20v12l-3 19-6 18-8 15-10 13-10 10-14 10-17 8-15 4-6 1h-24l-18-4-16-7-14-9-12-11-8-9-9-15-6-14-4-15-2-16v-10l3-19 4-13 5-12 9-14 9-11 11-10 14-9 14-6 15-4z"/>
<path transform="translate(509,503)" d="m0 0h14l8 6 4 7 1 4v7l-3 7 1 5 14 21 2 5h12l8 4 5 6 2 6v9l-3 6-7 7 4 17 10 40 10 4 7 7 3 8v10l-3 8-7 7-8 3h-8l-8-3-8-9-3-8-83-10-29-4h-5l-8 7-5 2h-9l-7-3-7-6-4-8v-13l4-7 8-7 10-3 2-6 10-48 2-10v-6l-6-8-1-3v-9l4-8 6-5 5-2h8l6 3 6 7 3 7 10 4 9 3 4-1 9-14 1-4-3-8v-9l4-8 7-6z"/>
<path transform="translate(489,163)" d="m0 0h23l17 3 18 6 16 8 14 10 12 11 8 9 10 15 8 16 6 18 3 15 1 10v17l-3 21-5 17-8 18-7 11-11 14-10 10-13 10-16 9-18 7-17 4-11 1h-14l-15-2-17-5-16-7-15-9-13-11-9-9-11-15-9-16-7-19-4-17-1-7v-26l3-18 7-21 11-21 10-13 9-10 13-11 16-10 14-6 17-5zm1 25-16 3-16 6-14 8-13 11-9 10-9 14-6 12-4 11-3 15-1 9v10l3 21 6 18 8 15 10 13 10 10 13 9 16 8 13 4 10 2h24l18-4 16-7 14-9 12-11 8-9 8-13 6-13 4-13 3-19v-12l-3-20-6-18-8-15-11-14-8-8-14-10-16-8-13-4-13-2z" fill="#FEFEFE"/>
<path transform="translate(479,631)" d="m0 0 6 1 1 1h12l7 4 15 12 14 11 16 13v2l-17-2-42-5-45-6-4-2 1-4 9-7 12-8z" fill="#FEFEFE"/>
<path transform="translate(541,598)" d="m0 0 6 1 8 6 4 13 10 40v5l-6 5-4-1-32-26-14-11-4-4 2-13 5-4z" fill="#FEFEFE"/>
<path transform="translate(519,543)" d="m0 0 4 1 7 9 8 12 4 5v4l-10-3h-4l-2 5v3l10 4 4 2-1 3-29 12-6 1 2-10 3-14 3-2 7 2 1-11-6-1 1-9 3-12z" fill="#FEFEFE"/>
<path transform="translate(448,567)" d="m0 0 5 2 9 11 4 6-2 5-10 16-14 21-5 8h-1l1-9 12-58z" fill="#FEFEFE"/>
<path transform="translate(417,644)" d="m0 0h7l8 5 3 5v10l-5 7-5 3h-8l-6-4-4-6-1-7 4-8z" fill="#FEFEFE"/>
<path transform="translate(577,669)" d="m0 0 7 1 6 4 3 4v11l-4 6-6 4h-8l-6-4-4-6v-9l4-6 5-4z" fill="#FEFEFE"/>
<path transform="translate(512,511)" d="m0 0h8l7 6 1 8-4 7-4 3h-8l-5-3-3-5v-8l4-6z" fill="#FEFEFE"/>
<path transform="translate(472,598)" d="m0 0 4 1 2 7-3 5v9l-9 7-17 12-4 2 1-4 22-33z" fill="#FEFEFE"/>
<path transform="translate(444,538)" d="m0 0 7 1 5 4 1 2v8l-6 7-5 1-7-3-3-4v-8l4-6z" fill="#FEFEFE"/>
<path transform="translate(492,569)" d="m0 0 6 1 1 1-1 9-5 19h-4l-8-9-1-5z" fill="#FEFEFE"/>
<path transform="translate(557,574)" d="m0 0h6l6 7v8l-5 5-4 2-6-1-5-5-1-6z" fill="#FEFEFE"/>
<path transform="translate(490,607)" d="m0 0 7 1 6 5 1 3-3 6-5 4h-6l-7-6-1-5 6-7z" fill="#FEFEFE"/>
<path transform="translate(462,559)" d="m0 0 7 1 12 4-2 5-5 8-5-4-7-11z" fill="#FEFEFE"/>
<path transform="translate(503,551)" d="m0 0h2l-2 8h-4l2-5z" fill="#FEFEFE"/>
</svg>
